<svg id="visual" viewBox="0 0 900 300" width="900" height="300" xmlns="http://www.w3.org/2000/svg" xmlns:xlink="http://www.w3.org/1999/xlink" version="1.1"><path d="M0 187L16.7 183.8C33.3 180.7 66.7 174.3 100 173.5C133.3 172.7 166.7 177.3 200 180.5C233.3 183.7 266.7 185.3 300 186C333.3 186.7 366.7 186.3 400 185.2C433.3 184 466.7 182 500 177.2C533.3 172.3 566.7 164.7 600 160.7C633.3 156.7 666.7 156.3 700 158.5C733.3 160.7 766.7 165.3 800 164.8C833.3 164.3 866.7 158.7 883.3 155.8L900 153L900 301L883.3 301C866.7 301 833.3 301 800 301C766.7 301 733.3 301 700 301C666.7 301 633.3 301 600 301C566.7 301 533.3 301 500 301C466.7 301 433.3 301 400 301C366.7 301 333.3 301 300 301C266.7 301 233.3 301 200 301C166.7 301 133.3 301 100 301C66.7 301 33.3 301 16.7 301L0 301Z" fill="#ffffff"></path><path d="M0 191L16.7 190.8C33.3 190.7 66.7 190.3 100 184.7C133.3 179 166.7 168 200 166.5C233.3 165 266.7 173 300 173C333.3 173 366.7 165 400 167C433.3 169 466.7 181 500 185.7C533.3 190.3 566.7 187.7 600 184.8C633.3 182 666.7 179 700 178.8C733.3 178.7 766.7 181.3 800 185C833.3 188.7 866.7 193.3 883.3 195.7L900 198L900 301L883.3 301C866.7 301 833.3 301 800 301C766.7 301 733.3 301 700 301C666.7 301 633.3 301 600 301C566.7 301 533.3 301 500 301C466.7 301 433.3 301 400 301C366.7 301 333.3 301 300 301C266.7 301 233.3 301 200 301C166.7 301 133.3 301 100 301C66.7 301 33.3 301 16.7 301L0 301Z" fill="#ecfaea"></path><path d="M0 200L16.7 201.5C33.3 203 66.7 206 100 203.2C133.3 200.3 166.7 191.7 200 188C233.3 184.3 266.7 185.7 300 184.5C333.3 183.3 366.7 179.7 400 178.5C433.3 177.3 466.7 178.7 500 180.5C533.3 182.3 566.7 184.7 600 184.7C633.3 184.7 666.7 182.3 700 184.7C733.3 187 766.7 194 800 197.5C833.3 201 866.7 201 883.3 201L900 201L900 301L883.3 301C866.7 301 833.3 301 800 301C766.7 301 733.3 301 700 301C666.7 301 633.3 301 600 301C566.7 301 533.3 301 500 301C466.7 301 433.3 301 400 301C366.7 301 333.3 301 300 301C266.7 301 233.3 301 200 301C166.7 301 133.3 301 100 301C66.7 301 33.3 301 16.7 301L0 301Z" fill="#d8f4d4"></path><path d="M0 220L16.7 216C33.3 212 66.7 204 100 200.8C133.3 197.7 166.7 199.3 200 200.7C233.3 202 266.7 203 300 206.5C333.3 210 366.7 216 400 215.3C433.3 214.7 466.7 207.3 500 203.8C533.3 200.3 566.7 200.7 600 203.2C633.3 205.7 666.7 210.3 700 211C733.3 211.7 766.7 208.3 800 205.2C833.3 202 866.7 199 883.3 197.5L900 196L900 301L883.3 301C866.7 301 833.3 301 800 301C766.7 301 733.3 301 700 301C666.7 301 633.3 301 600 301C566.7 301 533.3 301 500 301C466.7 301 433.3 301 400 301C366.7 301 333.3 301 300 301C266.7 301 233.3 301 200 301C166.7 301 133.3 301 100 301C66.7 301 33.3 301 16.7 301L0 301Z" fill="#c5eebf"></path><path d="M0 208L16.7 211.2C33.3 214.3 66.7 220.7 100 221.5C133.3 222.3 166.7 217.7 200 217.5C233.3 217.3 266.7 221.7 300 222.8C333.3 224 366.7 222 400 219.8C433.3 217.7 466.7 215.3 500 212.7C533.3 210 566.7 207 600 208.2C633.3 209.3 666.7 214.7 700 217C733.3 219.3 766.7 218.7 800 217.8C833.3 217 866.7 216 883.3 215.5L900 215L900 301L883.3 301C866.7 301 833.3 301 800 301C766.7 301 733.3 301 700 301C666.7 301 633.3 301 600 301C566.7 301 533.3 301 500 301C466.7 301 433.3 301 400 301C366.7 301 333.3 301 300 301C266.7 301 233.3 301 200 301C166.7 301 133.3 301 100 301C66.7 301 33.3 301 16.7 301L0 301Z" fill="#b0e8aa"></path><path d="M0 238L16.7 237.2C33.3 236.3 66.7 234.7 100 234.5C133.3 234.3 166.7 235.7 200 237.5C233.3 239.3 266.7 241.7 300 242.2C333.3 242.7 366.7 241.3 400 240.2C433.3 239 466.7 238 500 235.7C533.3 233.3 566.7 229.7 600 228C633.3 226.3 666.7 226.7 700 229.5C733.3 232.3 766.7 237.7 800 239.3C833.3 241 866.7 239 883.3 238L900 237L900 301L883.3 301C866.7 301 833.3 301 800 301C766.7 301 733.3 301 700 301C666.7 301 633.3 301 600 301C566.7 301 533.3 301 500 301C466.7 301 433.3 301 400 301C366.7 301 333.3 301 300 301C266.7 301 233.3 301 200 301C166.7 301 133.3 301 100 301C66.7 301 33.3 301 16.7 301L0 301Z" fill="#9be296"></path><path d="M0 246L16.7 246.7C33.3 247.3 66.7 248.7 100 248.7C133.3 248.7 166.7 247.3 200 245.5C233.3 243.7 266.7 241.3 300 241.8C333.3 242.3 366.7 245.7 400 244.5C433.3 243.3 466.7 237.7 500 237.7C533.3 237.7 566.7 243.3 600 244.7C633.3 246 666.7 243 700 240.2C733.3 237.3 766.7 234.7 800 235.3C833.3 236 866.7 240 883.3 242L900 244L900 301L883.3 301C866.7 301 833.3 301 800 301C766.7 301 733.3 301 700 301C666.7 301 633.3 301 600 301C566.7 301 533.3 301 500 301C466.7 301 433.3 301 400 301C366.7 301 333.3 301 300 301C266.7 301 233.3 301 200 301C166.7 301 133.3 301 100 301C66.7 301 33.3 301 16.7 301L0 301Z" fill="#85db81"></path><path d="M0 251L16.7 250.2C33.3 249.3 66.7 247.7 100 250.5C133.3 253.3 166.7 260.7 200 262.2C233.3 263.7 266.7 259.3 300 257.7C333.3 256 366.7 257 400 255.8C433.3 254.7 466.7 251.3 500 249.5C533.3 247.7 566.7 247.3 600 247C633.3 246.7 666.7 246.3 700 246C733.3 245.7 766.7 245.3 800 247.7C833.3 250 866.7 255 883.3 257.5L900 260L900 301L883.3 301C866.7 301 833.3 301 800 301C766.7 301 733.3 301 700 301C666.7 301 633.3 301 600 301C566.7 301 533.3 301 500 301C466.7 301 433.3 301 400 301C366.7 301 333.3 301 300 301C266.7 301 233.3 301 200 301C166.7 301 133.3 301 100 301C66.7 301 33.3 301 16.7 301L0 301Z" fill="#6cd56c"></path><path d="M0 275L16.7 274.3C33.3 273.7 66.7 272.3 100 272.3C133.3 272.3 166.7 273.7 200 275C233.3 276.3 266.7 277.7 300 277.7C333.3 277.7 366.7 276.3 400 273.2C433.3 270 466.7 265 500 265.7C533.3 266.3 566.7 272.7 600 273C633.3 273.3 666.7 267.7 700 267.3C733.3 267 766.7 272 800 273C833.3 274 866.7 271 883.3 269.5L900 268L900 301L883.3 301C866.7 301 833.3 301 800 301C766.7 301 733.3 301 700 301C666.7 301 633.3 301 600 301C566.7 301 533.3 301 500 301C466.7 301 433.3 301 400 301C366.7 301 333.3 301 300 301C266.7 301 233.3 301 200 301C166.7 301 133.3 301 100 301C66.7 301 33.3 301 16.7 301L0 301Z" fill="#4fce56"></path><path d="M0 286L16.7 285.2C33.3 284.3 66.7 282.7 100 280.8C133.3 279 166.7 277 200 277.2C233.3 277.3 266.7 279.7 300 279.7C333.3 279.7 366.7 277.3 400 276.7C433.3 276 466.7 277 500 279.3C533.3 281.7 566.7 285.3 600 285.3C633.3 285.3 666.7 281.7 700 281.7C733.3 281.7 766.7 285.3 800 285C833.3 284.7 866.7 280.3 883.3 278.2L900 276L900 301L883.3 301C866.7 301 833.3 301 800 301C766.7 301 733.3 301 700 301C666.7 301 633.3 301 600 301C566.7 301 533.3 301 500 301C466.7 301 433.3 301 400 301C366.7 301 333.3 301 300 301C266.7 301 233.3 301 200 301C166.7 301 133.3 301 100 301C66.7 301 33.3 301 16.7 301L0 301Z" fill="#24c73f"></path></svg>