<svg id="visual" viewBox="0 0 900 300" width="900" height="300" xmlns="http://www.w3.org/2000/svg" xmlns:xlink="http://www.w3.org/1999/xlink" version="1.1"><path d="M0 44L11.5 46C23 48 46 52 69 52.2C92 52.3 115 48.7 138.2 50.3C161.3 52 184.7 59 207.8 62.8C231 66.7 254 67.3 277 67.2C300 67 323 66 346 65.7C369 65.3 392 65.7 415.2 63.8C438.3 62 461.7 58 484.8 55C508 52 531 50 554 48.3C577 46.7 600 45.3 623 48.2C646 51 669 58 692.2 62.8C715.3 67.7 738.7 70.3 761.8 67.3C785 64.3 808 55.7 831 51.7C854 47.7 877 48.3 888.5 48.7L900 49L900 0L888.5 0C877 0 854 0 831 0C808 0 785 0 761.8 0C738.7 0 715.3 0 692.2 0C669 0 646 0 623 0C600 0 577 0 554 0C531 0 508 0 484.8 0C461.7 0 438.3 0 415.2 0C392 0 369 0 346 0C323 0 300 0 277 0C254 0 231 0 207.8 0C184.7 0 161.3 0 138.2 0C115 0 92 0 69 0C46 0 23 0 11.5 0L0 0Z" fill="#f8f9f8"></path><path d="M0 57L11.5 53.5C23 50 46 43 69 40.2C92 37.3 115 38.7 138.2 42.7C161.3 46.7 184.7 53.3 207.8 55.3C231 57.3 254 54.7 277 53.2C300 51.7 323 51.3 346 51.2C369 51 392 51 415.2 49.2C438.3 47.3 461.7 43.7 484.8 44.2C508 44.7 531 49.3 554 52.7C577 56 600 58 623 58.8C646 59.7 669 59.3 692.2 59C715.3 58.7 738.7 58.3 761.8 55C785 51.7 808 45.3 831 43.3C854 41.3 877 43.7 888.5 44.8L900 46L900 0L888.5 0C877 0 854 0 831 0C808 0 785 0 761.8 0C738.7 0 715.3 0 692.2 0C669 0 646 0 623 0C600 0 577 0 554 0C531 0 508 0 484.8 0C461.7 0 438.3 0 415.2 0C392 0 369 0 346 0C323 0 300 0 277 0C254 0 231 0 207.8 0C184.7 0 161.3 0 138.2 0C115 0 92 0 69 0C46 0 23 0 11.5 0L0 0Z" fill="#ceeacc"></path><path d="M0 44L11.5 42.2C23 40.3 46 36.7 69 37C92 37.3 115 41.7 138.2 41.3C161.3 41 184.7 36 207.8 34.8C231 33.7 254 36.3 277 39C300 41.7 323 44.3 346 45.7C369 47 392 47 415.2 46.5C438.3 46 461.7 45 484.8 42.2C508 39.3 531 34.7 554 33.8C577 33 600 36 623 37.8C646 39.7 669 40.3 692.2 39.5C715.3 38.7 738.7 36.3 761.8 35.7C785 35 808 36 831 36.2C854 36.3 877 35.7 888.5 35.3L900 35L900 0L888.5 0C877 0 854 0 831 0C808 0 785 0 761.8 0C738.7 0 715.3 0 692.2 0C669 0 646 0 623 0C600 0 577 0 554 0C531 0 508 0 484.8 0C461.7 0 438.3 0 415.2 0C392 0 369 0 346 0C323 0 300 0 277 0C254 0 231 0 207.8 0C184.7 0 161.3 0 138.2 0C115 0 92 0 69 0C46 0 23 0 11.5 0L0 0Z" fill="#a7da9e"></path><path d="M0 33L11.5 31.8C23 30.7 46 28.3 69 27.2C92 26 115 26 138.2 25.5C161.3 25 184.7 24 207.8 24.2C231 24.3 254 25.7 277 25.2C300 24.7 323 22.3 346 21.8C369 21.3 392 22.7 415.2 24C438.3 25.3 461.7 26.7 484.8 28.3C508 30 531 32 554 32.2C577 32.3 600 30.7 623 28.5C646 26.3 669 23.7 692.2 22.7C715.3 21.7 738.7 22.3 761.8 23C785 23.7 808 24.3 831 26.2C854 28 877 31 888.5 32.5L900 34L900 0L888.5 0C877 0 854 0 831 0C808 0 785 0 761.8 0C738.7 0 715.3 0 692.2 0C669 0 646 0 623 0C600 0 577 0 554 0C531 0 508 0 484.8 0C461.7 0 438.3 0 415.2 0C392 0 369 0 346 0C323 0 300 0 277 0C254 0 231 0 207.8 0C184.7 0 161.3 0 138.2 0C115 0 92 0 69 0C46 0 23 0 11.5 0L0 0Z" fill="#82c96e"></path><path d="M0 13L11.5 12.5C23 12 46 11 69 10.8C92 10.7 115 11.3 138.2 12.2C161.3 13 184.7 14 207.8 14.3C231 14.7 254 14.3 277 13.3C300 12.3 323 10.7 346 9.7C369 8.7 392 8.3 415.2 8C438.3 7.7 461.7 7.3 484.8 8.7C508 10 531 13 554 14C577 15 600 14 623 14.7C646 15.3 669 17.7 692.2 18.8C715.3 20 738.7 20 761.8 20.2C785 20.3 808 20.7 831 20C854 19.3 877 17.7 888.5 16.8L900 16L900 0L888.5 0C877 0 854 0 831 0C808 0 785 0 761.8 0C738.7 0 715.3 0 692.2 0C669 0 646 0 623 0C600 0 577 0 554 0C531 0 508 0 484.8 0C461.7 0 438.3 0 415.2 0C392 0 369 0 346 0C323 0 300 0 277 0C254 0 231 0 207.8 0C184.7 0 161.3 0 138.2 0C115 0 92 0 69 0C46 0 23 0 11.5 0L0 0Z" fill="#5cb739"></path></svg>