<svg id="visual" viewBox="0 0 900 300" width="900" height="300" xmlns="http://www.w3.org/2000/svg" xmlns:xlink="http://www.w3.org/1999/xlink" version="1.1"><path d="M0 244L11.5 243.7C23 243.3 46 242.7 69 239.5C92 236.3 115 230.7 138.2 230.7C161.3 230.7 184.7 236.3 207.8 236.8C231 237.3 254 232.7 277 230.2C300 227.7 323 227.3 346 228.7C369 230 392 233 415.2 234C438.3 235 461.7 234 484.8 234.8C508 235.7 531 238.3 554 239C577 239.7 600 238.3 623 240.2C646 242 669 247 692.2 249.2C715.3 251.3 738.7 250.7 761.8 246.8C785 243 808 236 831 235.3C854 234.7 877 240.3 888.5 243.2L900 246L900 301L888.5 301C877 301 854 301 831 301C808 301 785 301 761.8 301C738.7 301 715.3 301 692.2 301C669 301 646 301 623 301C600 301 577 301 554 301C531 301 508 301 484.8 301C461.7 301 438.3 301 415.2 301C392 301 369 301 346 301C323 301 300 301 277 301C254 301 231 301 207.8 301C184.7 301 161.3 301 138.2 301C115 301 92 301 69 301C46 301 23 301 11.5 301L0 301Z" fill="#f8f9f8"></path><path d="M0 242L11.5 241.3C23 240.7 46 239.3 69 241.5C92 243.7 115 249.3 138.2 250.5C161.3 251.7 184.7 248.3 207.8 246.2C231 244 254 243 277 241.7C300 240.3 323 238.7 346 240.7C369 242.7 392 248.3 415.2 251.7C438.3 255 461.7 256 484.8 253.8C508 251.7 531 246.3 554 246C577 245.7 600 250.3 623 249.7C646 249 669 243 692.2 242.3C715.3 241.7 738.7 246.3 761.8 249.7C785 253 808 255 831 252.8C854 250.7 877 244.3 888.5 241.2L900 238L900 301L888.5 301C877 301 854 301 831 301C808 301 785 301 761.8 301C738.7 301 715.3 301 692.2 301C669 301 646 301 623 301C600 301 577 301 554 301C531 301 508 301 484.8 301C461.7 301 438.3 301 415.2 301C392 301 369 301 346 301C323 301 300 301 277 301C254 301 231 301 207.8 301C184.7 301 161.3 301 138.2 301C115 301 92 301 69 301C46 301 23 301 11.5 301L0 301Z" fill="#ceeacc"></path><path d="M0 266L11.5 265.5C23 265 46 264 69 262C92 260 115 257 138.2 257.2C161.3 257.3 184.7 260.7 207.8 260.7C231 260.7 254 257.3 277 255.3C300 253.3 323 252.7 346 254.7C369 256.7 392 261.3 415.2 263.3C438.3 265.3 461.7 264.7 484.8 263C508 261.3 531 258.7 554 259.5C577 260.3 600 264.7 623 266C646 267.3 669 265.7 692.2 262.5C715.3 259.3 738.7 254.7 761.8 255.8C785 257 808 264 831 264.7C854 265.3 877 259.7 888.5 256.8L900 254L900 301L888.5 301C877 301 854 301 831 301C808 301 785 301 761.8 301C738.7 301 715.3 301 692.2 301C669 301 646 301 623 301C600 301 577 301 554 301C531 301 508 301 484.8 301C461.7 301 438.3 301 415.2 301C392 301 369 301 346 301C323 301 300 301 277 301C254 301 231 301 207.8 301C184.7 301 161.3 301 138.2 301C115 301 92 301 69 301C46 301 23 301 11.5 301L0 301Z" fill="#a7da9e"></path><path d="M0 272L11.5 270.5C23 269 46 266 69 266.3C92 266.7 115 270.3 138.2 270.5C161.3 270.7 184.7 267.3 207.8 267.8C231 268.3 254 272.7 277 275.7C300 278.7 323 280.3 346 280.7C369 281 392 280 415.2 277C438.3 274 461.7 269 484.8 268.3C508 267.7 531 271.3 554 274.2C577 277 600 279 623 277.5C646 276 669 271 692.2 269.7C715.3 268.3 738.7 270.7 761.8 272C785 273.3 808 273.7 831 275.2C854 276.7 877 279.3 888.5 280.7L900 282L900 301L888.5 301C877 301 854 301 831 301C808 301 785 301 761.8 301C738.7 301 715.3 301 692.2 301C669 301 646 301 623 301C600 301 577 301 554 301C531 301 508 301 484.8 301C461.7 301 438.3 301 415.2 301C392 301 369 301 346 301C323 301 300 301 277 301C254 301 231 301 207.8 301C184.7 301 161.3 301 138.2 301C115 301 92 301 69 301C46 301 23 301 11.5 301L0 301Z" fill="#82c96e"></path><path d="M0 287L11.5 287.3C23 287.7 46 288.3 69 289C92 289.7 115 290.3 138.2 288.7C161.3 287 184.7 283 207.8 281.8C231 280.7 254 282.3 277 282.7C300 283 323 282 346 280.8C369 279.7 392 278.3 415.2 278.5C438.3 278.7 461.7 280.3 484.8 281.8C508 283.3 531 284.7 554 285.2C577 285.7 600 285.3 623 284.8C646 284.3 669 283.7 692.2 284.3C715.3 285 738.7 287 761.8 287.3C785 287.7 808 286.3 831 285.2C854 284 877 283 888.5 282.5L900 282L900 301L888.5 301C877 301 854 301 831 301C808 301 785 301 761.8 301C738.7 301 715.3 301 692.2 301C669 301 646 301 623 301C600 301 577 301 554 301C531 301 508 301 484.8 301C461.7 301 438.3 301 415.2 301C392 301 369 301 346 301C323 301 300 301 277 301C254 301 231 301 207.8 301C184.7 301 161.3 301 138.2 301C115 301 92 301 69 301C46 301 23 301 11.5 301L0 301Z" fill="#5cb739"></path></svg>