<svg id="visual" viewBox="0 0 900 300" width="900" height="300" xmlns="http://www.w3.org/2000/svg" xmlns:xlink="http://www.w3.org/1999/xlink" version="1.1"><path d="M0 90L9.3 91.8C18.7 93.7 37.3 97.3 56.2 99.3C75 101.3 94 101.7 112.8 99.3C131.7 97 150.3 92 169 91.5C187.7 91 206.3 95 225 96.3C243.7 97.7 262.3 96.3 281.2 94.8C300 93.3 319 91.7 337.8 90.3C356.7 89 375.3 88 394 87.7C412.7 87.3 431.3 87.7 450 90.2C468.7 92.7 487.3 97.3 506.2 99.3C525 101.3 544 100.7 562.8 99.5C581.7 98.3 600.3 96.7 619 94.5C637.7 92.3 656.3 89.7 675 89.7C693.7 89.7 712.3 92.3 731.2 93.5C750 94.7 769 94.3 787.8 95.2C806.7 96 825.3 98 844 98.7C862.7 99.3 881.3 98.7 890.7 98.3L900 98L900 0L890.7 0C881.3 0 862.7 0 844 0C825.3 0 806.7 0 787.8 0C769 0 750 0 731.2 0C712.3 0 693.7 0 675 0C656.3 0 637.7 0 619 0C600.3 0 581.7 0 562.8 0C544 0 525 0 506.2 0C487.3 0 468.7 0 450 0C431.3 0 412.7 0 394 0C375.3 0 356.7 0 337.8 0C319 0 300 0 281.2 0C262.3 0 243.7 0 225 0C206.3 0 187.7 0 169 0C150.3 0 131.7 0 112.8 0C94 0 75 0 56.2 0C37.3 0 18.7 0 9.3 0L0 0Z" fill="#ddf0dc"></path><path d="M0 89L9.3 87.2C18.7 85.3 37.3 81.7 56.2 81.5C75 81.3 94 84.7 112.8 86.7C131.7 88.7 150.3 89.3 169 88C187.7 86.7 206.3 83.3 225 83.5C243.7 83.7 262.3 87.3 281.2 88C300 88.7 319 86.3 337.8 85.5C356.7 84.7 375.3 85.3 394 84C412.7 82.7 431.3 79.3 450 80.5C468.7 81.7 487.3 87.3 506.2 89.5C525 91.7 544 90.3 562.8 87.7C581.7 85 600.3 81 619 81.3C637.7 81.7 656.3 86.3 675 88.8C693.7 91.3 712.3 91.7 731.2 92C750 92.3 769 92.7 787.8 92.7C806.7 92.7 825.3 92.3 844 90.8C862.7 89.3 881.3 86.7 890.7 85.3L900 84L900 0L890.7 0C881.3 0 862.7 0 844 0C825.3 0 806.7 0 787.8 0C769 0 750 0 731.2 0C712.3 0 693.7 0 675 0C656.3 0 637.7 0 619 0C600.3 0 581.7 0 562.8 0C544 0 525 0 506.2 0C487.3 0 468.7 0 450 0C431.3 0 412.7 0 394 0C375.3 0 356.7 0 337.8 0C319 0 300 0 281.2 0C262.3 0 243.7 0 225 0C206.3 0 187.7 0 169 0C150.3 0 131.7 0 112.8 0C94 0 75 0 56.2 0C37.3 0 18.7 0 9.3 0L0 0Z" fill="#ceeacb"></path><path d="M0 69L9.3 68.7C18.7 68.3 37.3 67.7 56.2 70C75 72.3 94 77.7 112.8 79.5C131.7 81.3 150.3 79.7 169 78.2C187.7 76.7 206.3 75.3 225 75.7C243.7 76 262.3 78 281.2 77.7C300 77.3 319 74.7 337.8 74.3C356.7 74 375.3 76 394 77.2C412.7 78.3 431.3 78.7 450 77.2C468.7 75.7 487.3 72.3 506.2 70.7C525 69 544 69 562.8 69.2C581.7 69.3 600.3 69.7 619 70.5C637.7 71.3 656.3 72.7 675 73C693.7 73.3 712.3 72.7 731.2 72.2C750 71.7 769 71.3 787.8 71.8C806.7 72.3 825.3 73.7 844 74C862.7 74.3 881.3 73.7 890.7 73.3L900 73L900 0L890.7 0C881.3 0 862.7 0 844 0C825.3 0 806.7 0 787.8 0C769 0 750 0 731.2 0C712.3 0 693.7 0 675 0C656.3 0 637.7 0 619 0C600.3 0 581.7 0 562.8 0C544 0 525 0 506.2 0C487.3 0 468.7 0 450 0C431.3 0 412.7 0 394 0C375.3 0 356.7 0 337.8 0C319 0 300 0 281.2 0C262.3 0 243.7 0 225 0C206.3 0 187.7 0 169 0C150.3 0 131.7 0 112.8 0C94 0 75 0 56.2 0C37.3 0 18.7 0 9.3 0L0 0Z" fill="#bfe4ba"></path><path d="M0 66L9.3 66.8C18.7 67.7 37.3 69.3 56.2 69.8C75 70.3 94 69.7 112.8 68.5C131.7 67.3 150.3 65.7 169 65.8C187.7 66 206.3 68 225 68.3C243.7 68.7 262.3 67.3 281.2 67.7C300 68 319 70 337.8 70.5C356.7 71 375.3 70 394 69.3C412.7 68.7 431.3 68.3 450 67.5C468.7 66.7 487.3 65.3 506.2 64.3C525 63.3 544 62.7 562.8 61.7C581.7 60.7 600.3 59.3 619 58.8C637.7 58.3 656.3 58.7 675 59.3C693.7 60 712.3 61 731.2 61.5C750 62 769 62 787.8 63.7C806.7 65.3 825.3 68.7 844 70C862.7 71.3 881.3 70.7 890.7 70.3L900 70L900 0L890.7 0C881.3 0 862.7 0 844 0C825.3 0 806.7 0 787.8 0C769 0 750 0 731.2 0C712.3 0 693.7 0 675 0C656.3 0 637.7 0 619 0C600.3 0 581.7 0 562.8 0C544 0 525 0 506.2 0C487.3 0 468.7 0 450 0C431.3 0 412.7 0 394 0C375.3 0 356.7 0 337.8 0C319 0 300 0 281.2 0C262.3 0 243.7 0 225 0C206.3 0 187.7 0 169 0C150.3 0 131.7 0 112.8 0C94 0 75 0 56.2 0C37.3 0 18.7 0 9.3 0L0 0Z" fill="#b0dea9"></path><path d="M0 60L9.3 60.5C18.7 61 37.3 62 56.2 61.5C75 61 94 59 112.8 59.2C131.7 59.3 150.3 61.7 169 62.5C187.7 63.3 206.3 62.7 225 62.7C243.7 62.7 262.3 63.3 281.2 62.5C300 61.7 319 59.3 337.8 58C356.7 56.7 375.3 56.3 394 55.8C412.7 55.3 431.3 54.7 450 55.5C468.7 56.3 487.3 58.7 506.2 58C525 57.3 544 53.7 562.8 52.8C581.7 52 600.3 54 619 56.2C637.7 58.3 656.3 60.7 675 60.7C693.7 60.7 712.3 58.3 731.2 56.3C750 54.3 769 52.7 787.8 51.5C806.7 50.3 825.3 49.7 844 51C862.7 52.3 881.3 55.7 890.7 57.3L900 59L900 0L890.7 0C881.3 0 862.7 0 844 0C825.3 0 806.7 0 787.8 0C769 0 750 0 731.2 0C712.3 0 693.7 0 675 0C656.3 0 637.7 0 619 0C600.3 0 581.7 0 562.8 0C544 0 525 0 506.2 0C487.3 0 468.7 0 450 0C431.3 0 412.7 0 394 0C375.3 0 356.7 0 337.8 0C319 0 300 0 281.2 0C262.3 0 243.7 0 225 0C206.3 0 187.7 0 169 0C150.3 0 131.7 0 112.8 0C94 0 75 0 56.2 0C37.3 0 18.7 0 9.3 0L0 0Z" fill="#a2d898"></path><path d="M0 42L9.3 41.8C18.7 41.7 37.3 41.3 56.2 42.7C75 44 94 47 112.8 47.2C131.7 47.3 150.3 44.7 169 44.2C187.7 43.7 206.3 45.3 225 46.8C243.7 48.3 262.3 49.7 281.2 49.5C300 49.3 319 47.7 337.8 46.8C356.7 46 375.3 46 394 46.8C412.7 47.7 431.3 49.3 450 49.5C468.7 49.7 487.3 48.3 506.2 48.3C525 48.3 544 49.7 562.8 50.2C581.7 50.7 600.3 50.3 619 49.2C637.7 48 656.3 46 675 45.7C693.7 45.3 712.3 46.7 731.2 47.3C750 48 769 48 787.8 48.2C806.7 48.3 825.3 48.7 844 49.5C862.7 50.3 881.3 51.7 890.7 52.3L900 53L900 0L890.7 0C881.3 0 862.7 0 844 0C825.3 0 806.7 0 787.8 0C769 0 750 0 731.2 0C712.3 0 693.7 0 675 0C656.3 0 637.7 0 619 0C600.3 0 581.7 0 562.8 0C544 0 525 0 506.2 0C487.3 0 468.7 0 450 0C431.3 0 412.7 0 394 0C375.3 0 356.7 0 337.8 0C319 0 300 0 281.2 0C262.3 0 243.7 0 225 0C206.3 0 187.7 0 169 0C150.3 0 131.7 0 112.8 0C94 0 75 0 56.2 0C37.3 0 18.7 0 9.3 0L0 0Z" fill="#94d286"></path><path d="M0 44L9.3 42.8C18.7 41.7 37.3 39.3 56.2 38.5C75 37.7 94 38.3 112.8 38.5C131.7 38.7 150.3 38.3 169 38.2C187.7 38 206.3 38 225 37.2C243.7 36.3 262.3 34.7 281.2 33.8C300 33 319 33 337.8 34.2C356.7 35.3 375.3 37.7 394 39.5C412.7 41.3 431.3 42.7 450 42.2C468.7 41.7 487.3 39.3 506.2 38.7C525 38 544 39 562.8 38.7C581.7 38.3 600.3 36.7 619 37C637.7 37.3 656.3 39.7 675 40.7C693.7 41.7 712.3 41.3 731.2 40.3C750 39.3 769 37.7 787.8 37.3C806.7 37 825.3 38 844 38.3C862.7 38.7 881.3 38.3 890.7 38.2L900 38L900 0L890.7 0C881.3 0 862.7 0 844 0C825.3 0 806.7 0 787.8 0C769 0 750 0 731.2 0C712.3 0 693.7 0 675 0C656.3 0 637.7 0 619 0C600.3 0 581.7 0 562.8 0C544 0 525 0 506.2 0C487.3 0 468.7 0 450 0C431.3 0 412.7 0 394 0C375.3 0 356.7 0 337.8 0C319 0 300 0 281.2 0C262.3 0 243.7 0 225 0C206.3 0 187.7 0 169 0C150.3 0 131.7 0 112.8 0C94 0 75 0 56.2 0C37.3 0 18.7 0 9.3 0L0 0Z" fill="#86cb74"></path><path d="M0 30L9.3 29.5C18.7 29 37.3 28 56.2 28.5C75 29 94 31 112.8 31.7C131.7 32.3 150.3 31.7 169 30.3C187.7 29 206.3 27 225 25.8C243.7 24.7 262.3 24.3 281.2 24.7C300 25 319 26 337.8 27.5C356.7 29 375.3 31 394 31.3C412.7 31.7 431.3 30.3 450 29.5C468.7 28.7 487.3 28.3 506.2 29C525 29.7 544 31.3 562.8 31.3C581.7 31.3 600.3 29.7 619 29.7C637.7 29.7 656.3 31.3 675 32.2C693.7 33 712.3 33 731.2 32.7C750 32.3 769 31.7 787.8 31.3C806.7 31 825.3 31 844 30.5C862.7 30 881.3 29 890.7 28.5L900 28L900 0L890.7 0C881.3 0 862.7 0 844 0C825.3 0 806.7 0 787.8 0C769 0 750 0 731.2 0C712.3 0 693.7 0 675 0C656.3 0 637.7 0 619 0C600.3 0 581.7 0 562.8 0C544 0 525 0 506.2 0C487.3 0 468.7 0 450 0C431.3 0 412.7 0 394 0C375.3 0 356.7 0 337.8 0C319 0 300 0 281.2 0C262.3 0 243.7 0 225 0C206.3 0 187.7 0 169 0C150.3 0 131.7 0 112.8 0C94 0 75 0 56.2 0C37.3 0 18.7 0 9.3 0L0 0Z" fill="#78c562"></path><path d="M0 22L9.3 21.8C18.7 21.7 37.3 21.3 56.2 21C75 20.7 94 20.3 112.8 19.8C131.7 19.3 150.3 18.7 169 18.8C187.7 19 206.3 20 225 20.8C243.7 21.7 262.3 22.3 281.2 21.8C300 21.3 319 19.7 337.8 18.3C356.7 17 375.3 16 394 16C412.7 16 431.3 17 450 17C468.7 17 487.3 16 506.2 15.7C525 15.3 544 15.7 562.8 15.5C581.7 15.3 600.3 14.7 619 15.5C637.7 16.3 656.3 18.7 675 18.8C693.7 19 712.3 17 731.2 16.2C750 15.3 769 15.7 787.8 16.2C806.7 16.7 825.3 17.3 844 17.2C862.7 17 881.3 16 890.7 15.5L900 15L900 0L890.7 0C881.3 0 862.7 0 844 0C825.3 0 806.7 0 787.8 0C769 0 750 0 731.2 0C712.3 0 693.7 0 675 0C656.3 0 637.7 0 619 0C600.3 0 581.7 0 562.8 0C544 0 525 0 506.2 0C487.3 0 468.7 0 450 0C431.3 0 412.7 0 394 0C375.3 0 356.7 0 337.8 0C319 0 300 0 281.2 0C262.3 0 243.7 0 225 0C206.3 0 187.7 0 169 0C150.3 0 131.7 0 112.8 0C94 0 75 0 56.2 0C37.3 0 18.7 0 9.3 0L0 0Z" fill="#6abe4e"></path><path d="M0 11L9.3 11.5C18.7 12 37.3 13 56.2 12.5C75 12 94 10 112.8 9.2C131.7 8.3 150.3 8.7 169 9C187.7 9.3 206.3 9.7 225 10C243.7 10.3 262.3 10.7 281.2 11C300 11.3 319 11.7 337.8 11C356.7 10.3 375.3 8.7 394 8.7C412.7 8.7 431.3 10.3 450 10.2C468.7 10 487.3 8 506.2 8.3C525 8.7 544 11.3 562.8 12.7C581.7 14 600.3 14 619 13.8C637.7 13.7 656.3 13.3 675 12.3C693.7 11.3 712.3 9.7 731.2 8.7C750 7.7 769 7.3 787.8 8C806.7 8.7 825.3 10.3 844 10.3C862.7 10.3 881.3 8.7 890.7 7.8L900 7L900 0L890.7 0C881.3 0 862.7 0 844 0C825.3 0 806.7 0 787.8 0C769 0 750 0 731.2 0C712.3 0 693.7 0 675 0C656.3 0 637.7 0 619 0C600.3 0 581.7 0 562.8 0C544 0 525 0 506.2 0C487.3 0 468.7 0 450 0C431.3 0 412.7 0 394 0C375.3 0 356.7 0 337.8 0C319 0 300 0 281.2 0C262.3 0 243.7 0 225 0C206.3 0 187.7 0 169 0C150.3 0 131.7 0 112.8 0C94 0 75 0 56.2 0C37.3 0 18.7 0 9.3 0L0 0Z" fill="#5cb739"></path></svg>